<svg width="5973" height="1536" viewBox="0 0 5973 1536" fill="none" xmlns="http://www.w3.org/2000/svg">
<g id="logo" clip-path="url(#clip0_2255_627)">
<path id="internal" d="M142.56 602.16C142.56 574.08 166.32 550.32 193.32 550.32C224.64 550.32 246.24 574.08 246.24 602.16V1062.24C246.24 1089.24 224.64 1113 193.32 1113C166.32 1113 142.56 1089.24 142.56 1062.24V602.16ZM135 441.24C135 407.76 159.84 380.76 193.32 380.76C227.88 380.76 254.88 407.76 254.88 441.24C254.88 475.8 227.88 502.8 193.32 502.8C159.84 502.8 135 475.8 135 441.24ZM361.707 799.8C361.707 662.64 474.027 550.32 612.267 550.32C748.347 550.32 861.747 662.64 861.747 799.8V1062.24C861.747 1090.32 837.987 1113 809.907 1113C781.827 1113 758.067 1089.24 758.067 1062.24V799.8C758.067 717.72 692.187 652.92 612.267 652.92C531.267 652.92 464.307 717.72 464.307 799.8V1062.24C464.307 1090.32 441.627 1113 412.467 1113C384.387 1113 361.707 1089.24 361.707 1062.24V799.8ZM1044.41 407.76C1044.41 379.68 1068.17 355.92 1094.09 355.92C1124.33 355.92 1148.09 380.76 1148.09 407.76V550.32H1237.73C1266.89 550.32 1290.65 574.08 1290.65 602.16C1290.65 629.16 1266.89 652.92 1237.73 652.92H1148.09V1062.24C1148.09 1089.24 1124.33 1113 1094.09 1113C1068.17 1113 1044.41 1090.32 1044.41 1062.24V652.92H951.531C924.531 652.92 901.851 629.16 901.851 602.16C901.851 574.08 924.531 550.32 951.531 550.32H1044.41V407.76ZM1318.98 831.12C1318.98 676.68 1444.26 551.4 1600.86 551.4C1743.42 551.4 1861.14 658.32 1877.34 795.48C1885.98 838.68 1871.94 868.92 1817.94 868.92H1429.14C1444.26 948.84 1513.38 1010.4 1600.86 1010.4C1649.46 1010.4 1693.74 990.96 1726.14 958.56C1736.94 947.76 1749.9 943.44 1763.94 943.44C1775.82 943.44 1788.78 947.76 1799.58 958.56C1819.02 976.92 1819.02 1010.4 1799.58 1030.92C1748.82 1081.68 1677.54 1114.08 1600.86 1114.08C1444.26 1114.08 1318.98 987.72 1318.98 831.12ZM1772.58 795.48C1756.38 715.56 1686.18 654 1600.86 654C1514.46 654 1444.26 715.56 1429.14 795.48H1772.58ZM1962.72 799.8C1962.72 662.64 2073.96 550.32 2212.2 550.32C2240.28 550.32 2262.96 573 2262.96 601.08C2262.96 629.16 2240.28 652.92 2212.2 652.92C2129.04 652.92 2064.24 717.72 2064.24 799.8V1063.32C2064.24 1092.48 2042.64 1116.24 2012.4 1116.24C1984.32 1116.24 1962.72 1091.4 1962.72 1063.32V799.8ZM2298.11 799.8C2298.11 662.64 2410.43 550.32 2548.67 550.32C2684.75 550.32 2798.15 662.64 2798.15 799.8V1062.24C2798.15 1090.32 2774.39 1113 2746.31 1113C2718.23 1113 2694.47 1089.24 2694.47 1062.24V799.8C2694.47 717.72 2628.59 652.92 2548.67 652.92C2467.67 652.92 2400.71 717.72 2400.71 799.8V1062.24C2400.71 1090.32 2378.03 1113 2348.87 1113C2320.79 1113 2298.11 1089.24 2298.11 1062.24V799.8ZM3167.05 1114.08C3011.53 1114.08 2886.25 987.72 2886.25 831.12C2886.25 675.6 3011.53 550.32 3167.05 550.32C3322.57 550.32 3447.85 675.6 3447.85 831.12V1062.24C3447.85 1089.24 3424.09 1114.08 3394.93 1114.08C3367.93 1114.08 3343.09 1089.24 3343.09 1062.24V1050.36C3295.57 1090.32 3234.01 1114.08 3167.05 1114.08ZM2987.77 831.12C2987.77 930.48 3067.69 1010.4 3167.05 1010.4C3264.25 1010.4 3344.17 930.48 3344.17 831.12C3344.17 732.84 3264.25 652.92 3167.05 652.92C3067.69 652.92 2987.77 732.84 2987.77 831.12ZM3560.83 407.76C3560.83 379.68 3582.43 355.92 3610.51 355.92C3640.75 355.92 3662.35 380.76 3662.35 407.76V1062.24C3662.35 1089.24 3640.75 1113 3610.51 1113C3582.43 1113 3560.83 1090.32 3560.83 1062.24V407.76Z" fill="#11110D"/>
<path id="note" d="M3777.24 795.48C3777.24 659.4 3887.4 550.32 4022.4 550.32C4156.32 550.32 4267.56 659.4 4267.56 795.48V1074.12C4267.56 1096.8 4249.2 1113 4227.6 1113C4207.08 1113 4188.72 1096.8 4188.72 1074.12V795.48C4188.72 703.68 4113.12 628.08 4022.4 628.08C3929.52 628.08 3853.92 703.68 3853.92 795.48V1074.12C3853.92 1096.8 3836.64 1113 3816.12 1113C3793.44 1113 3777.24 1096.8 3777.24 1074.12V795.48ZM4365.35 832.2C4365.35 675.6 4491.71 550.32 4646.15 550.32C4801.67 550.32 4928.03 675.6 4928.03 832.2C4928.03 987.72 4801.67 1113 4646.15 1113C4491.71 1113 4365.35 987.72 4365.35 832.2ZM4850.27 832.2C4850.27 717.72 4759.55 627 4646.15 627C4532.75 627 4442.03 717.72 4442.03 832.2C4442.03 945.6 4532.75 1036.32 4646.15 1036.32C4759.55 1036.32 4850.27 945.6 4850.27 832.2ZM5093.61 394.8C5093.61 373.2 5111.97 355.92 5132.49 355.92C5155.17 355.92 5172.45 373.2 5172.45 394.8V550.32H5271.81C5293.41 550.32 5310.69 566.52 5310.69 588.12C5310.69 609.72 5293.41 627 5271.81 627H5172.45V1075.2C5172.45 1097.88 5155.17 1115.16 5132.49 1115.16C5111.97 1115.16 5093.61 1097.88 5093.61 1075.2V627H4994.25C4972.65 627 4956.45 609.72 4956.45 588.12C4956.45 566.52 4972.65 550.32 4994.25 550.32H5093.61V394.8ZM5339.88 832.2C5339.88 676.68 5466.24 550.32 5620.68 550.32C5767.56 550.32 5888.52 663.72 5898.24 807.36C5905.8 839.76 5893.92 861.36 5856.12 861.36H5421.96C5433.84 959.64 5519.16 1036.32 5620.68 1036.32C5675.76 1036.32 5727.6 1012.56 5764.32 975.84C5772.96 968.28 5782.68 965.04 5791.32 965.04C5803.2 965.04 5812.92 968.28 5818.32 975.84C5834.52 992.04 5834.52 1014.72 5818.32 1030.92C5768.64 1081.68 5698.44 1113 5620.68 1113C5466.24 1113 5339.88 986.64 5339.88 832.2ZM5818.32 804.12C5808.6 705.84 5723.28 628.08 5620.68 628.08C5519.16 628.08 5433.84 705.84 5421.96 804.12H5818.32Z" fill="#11110D"/>
</g>
<defs>
<clipPath id="clip0_2255_627">
<rect width="1991" height="512" fill="white" transform="scale(3)"/>
</clipPath>
</defs>
</svg>
