<svg xmlns="http://www.w3.org/2000/svg" width="78.4" height="56" viewBox="0 0 78.4 56" fill="#11110D" role="img" aria-label="Zendesk" class="zendesk-logo">
<path d="M37.5 8.8v24.4H17.4zm0-8.8c0 5.6-4.5 10.1-10.1 10.1s-10-4.5-10-10.1zm3.3 33.1c0-5.6 4.5-10.1 10.1-10.1S61 27.5 61 33.1zm0-8.7V0H61z"></path>
<path d="M54.6 49.8c-.2-1.4-1.1-2.4-2.7-2.4-1.5 0-2.6.9-2.9 2.4zm-2.5 4.1c1.3 0 2.2-.5 2.8-1.1l1.4 1.5c-.9.9-2.2 1.6-4.2 1.6-3.4 0-5.6-2.2-5.6-5.3 0-3 2.3-5.3 5.2-5.3 3.4 0 5.2 2.6 5.1 6.1H49c.3 1.6 1.3 2.5 3.1 2.5M0 53.8l6.1-6.2h-6v-2h8.8v2l-6.1 6.2H9v2H0zm18.3-4c-.2-1.4-1.1-2.4-2.7-2.4-1.5 0-2.6.9-2.9 2.4zm-2.4 4.1c1.3 0 2.2-.5 2.8-1.1l1.4 1.5c-.9.9-2.2 1.6-4.2 1.6-3.4 0-5.6-2.2-5.6-5.3 0-3 2.3-5.3 5.2-5.3 3.4 0 5.2 2.6 5.1 6.1h-7.9c.4 1.6 1.4 2.5 3.2 2.5m26.6-3.2c0-1.8-1.4-3.3-3.2-3.3s-3.2 1.4-3.2 3.3 1.4 3.3 3.2 3.3 3.2-1.5 3.2-3.3m-8.6 0c0-3.3 2.4-5.3 5.1-5.3 1.3 0 2.6.6 3.4 1.5v-6h2.2v14.8h-2.2v-1.4c-.8 1-2.1 1.6-3.4 1.6-2.6.1-5.1-2-5.1-5.2m24.4 3 2-1c.6.9 1.4 1.5 2.6 1.5s1.9-.6 1.9-1.3c0-.8-1.2-1-2.5-1.3-1.7-.4-3.5-.9-3.5-3 0-1.6 1.5-3.1 3.9-3.1 1.9 0 3.3.7 4.1 2l-1.8 1c-.5-.7-1.3-1.2-2.3-1.2-1.2 0-1.8.6-1.8 1.2 0 .7.9.9 2.4 1.3 1.7.3 3.6.9 3.6 3 0 1.4-1.2 3.3-4.1 3.3q-3.15-.15-4.5-2.4m14.5-2.4-1.7 1.9v2.6h-2.2V41h2.2v9.7l4.6-5h2.6l-4 4.3 4.1 5.8h-2.5zm-45.4-5.9c-2.6 0-4.7 1.7-4.7 4.4v5.9h2.2v-5.6c0-1.7.9-2.7 2.6-2.7s2.4 1 2.4 2.7v5.6h2.2v-5.9c0-2.7-2.2-4.4-4.7-4.4"></path>
</svg>
