<svg width="7275" height="1536" viewBox="0 0 7275 1536" fill="none" xmlns="http://www.w3.org/2000/svg">
<g id="internalnote_logo_outline" clip-path="url(#clip0_76_1430)">
<g id="Component 1">
<g id="Group">
<g id="symbol">
<g id="Group_2">
<g id="Group_3">
<path id="Path" d="M326.651 913.843C326.651 974.21 375.74 1023.25 436.137 1023.25H946.863C1007.21 1023.25 1056.3 974.21 1056.3 913.843V589.137C1056.3 528.769 1007.21 479.677 946.863 479.677H436.137C375.74 479.677 326.651 528.769 326.651 589.137C326.651 589.137 326.651 654.293 326.651 701.298C376.334 701.298 541.346 701.298 634.388 701.298V614.747L867.217 749.203L634.378 883.454V796.985H231V589.137C231 476.035 323.018 384 436.137 384H946.863C1059.95 384 1152 476.035 1152 589.137V913.843C1152 1026.93 1059.95 1119 946.863 1119H436.137C323.018 1119 231 1026.93 231 913.843H326.651Z" fill="#006DFF"/>
</g>
</g>
</g>
</g>
<g id="internal">
<path id="Vector" d="M4673.83 389.76C4673.83 361.68 4695.43 337.92 4723.51 337.92C4753.75 337.92 4775.35 362.76 4775.35 389.76V1044.24C4775.35 1071.24 4753.75 1095 4723.51 1095C4695.43 1095 4673.83 1072.32 4673.83 1044.24V389.76Z" fill="#2F3941"/>
<path id="Vector_2" d="M4280.05 1096.08C4124.53 1096.08 3999.25 969.72 3999.25 813.12C3999.25 657.6 4124.53 532.32 4280.05 532.32C4435.57 532.32 4560.85 657.6 4560.85 813.12V1044.24C4560.85 1071.24 4537.09 1096.08 4507.93 1096.08C4480.93 1096.08 4456.09 1071.24 4456.09 1044.24V1032.36C4408.57 1072.32 4347.01 1096.08 4280.05 1096.08ZM4100.77 813.12C4100.77 912.48 4180.69 992.4 4280.05 992.4C4377.25 992.4 4457.17 912.48 4457.17 813.12C4457.17 714.84 4377.25 634.92 4280.05 634.92C4180.69 634.92 4100.77 714.84 4100.77 813.12Z" fill="#2F3941"/>
<path id="Vector_3" d="M3411.11 781.8C3411.11 644.64 3523.43 532.32 3661.67 532.32C3797.75 532.32 3911.15 644.64 3911.15 781.8V1044.24C3911.15 1072.32 3887.39 1095 3859.31 1095C3831.23 1095 3807.47 1071.24 3807.47 1044.24V781.8C3807.47 699.72 3741.59 634.92 3661.67 634.92C3580.67 634.92 3513.71 699.72 3513.71 781.8V1044.24C3513.71 1072.32 3491.03 1095 3461.87 1095C3433.79 1095 3411.11 1071.24 3411.11 1044.24V781.8Z" fill="#2F3941"/>
<path id="Vector_4" d="M3075.72 781.8C3075.72 644.64 3186.96 532.32 3325.2 532.32C3353.28 532.32 3375.96 555 3375.96 583.08C3375.96 611.16 3353.28 634.92 3325.2 634.92C3242.04 634.92 3177.24 699.72 3177.24 781.8V1045.32C3177.24 1074.48 3155.64 1098.24 3125.4 1098.24C3097.32 1098.24 3075.72 1073.4 3075.72 1045.32V781.8Z" fill="#2F3941"/>
<path id="Vector_5" d="M2431.98 813.119C2431.98 658.679 2557.26 533.399 2713.86 533.399C2856.42 533.399 2974.14 640.319 2990.34 777.479C2998.98 820.679 2984.94 850.919 2930.94 850.919H2542.14C2557.26 930.839 2626.38 992.399 2713.86 992.399C2762.46 992.399 2806.74 972.959 2839.14 940.559C2849.94 929.759 2862.9 925.439 2876.94 925.439C2888.82 925.439 2901.78 929.759 2912.58 940.559C2932.02 958.919 2932.02 992.399 2912.58 1012.92C2861.82 1063.68 2790.54 1096.08 2713.86 1096.08C2557.26 1096.08 2431.98 969.719 2431.98 813.119ZM2885.58 777.479C2869.38 697.559 2799.18 635.999 2713.86 635.999C2627.46 635.999 2557.26 697.559 2542.14 777.479H2885.58Z" fill="#2F3941"/>
<path id="Vector_6" d="M2157.41 389.76C2157.41 361.68 2181.17 337.92 2207.09 337.92C2237.33 337.92 2261.09 362.76 2261.09 389.76V532.32H2350.73C2379.89 532.32 2403.65 556.08 2403.65 584.16C2403.65 611.16 2379.89 634.92 2350.73 634.92H2261.09V1044.24C2261.09 1071.24 2237.33 1095 2207.09 1095C2181.17 1095 2157.41 1072.32 2157.41 1044.24V634.92H2064.53C2037.53 634.92 2014.85 611.16 2014.85 584.16C2014.85 556.08 2037.53 532.32 2064.53 532.32H2157.41V389.76Z" fill="#2F3941"/>
<path id="Vector_7" d="M1474.71 781.8C1474.71 644.64 1587.03 532.32 1725.27 532.32C1861.35 532.32 1974.75 644.64 1974.75 781.8V1044.24C1974.75 1072.32 1950.99 1095 1922.91 1095C1894.83 1095 1871.07 1071.24 1871.07 1044.24V781.8C1871.07 699.72 1805.19 634.92 1725.27 634.92C1644.27 634.92 1577.31 699.72 1577.31 781.8V1044.24C1577.31 1072.32 1554.63 1095 1525.47 1095C1497.39 1095 1474.71 1071.24 1474.71 1044.24V781.8Z" fill="#2F3941"/>
<path id="Vector_8" d="M1255.56 584.16C1255.56 556.08 1279.32 532.32 1306.32 532.32C1337.64 532.32 1359.24 556.08 1359.24 584.16V1044.24C1359.24 1071.24 1337.64 1095 1306.32 1095C1279.32 1095 1255.56 1071.24 1255.56 1044.24V584.16ZM1248 423.24C1248 389.76 1272.84 362.76 1306.32 362.76C1340.88 362.76 1367.88 389.76 1367.88 423.24C1367.88 457.8 1340.88 484.8 1306.32 484.8C1272.84 484.8 1248 457.8 1248 423.24Z" fill="#2F3941"/>
</g>
<g id="note">
<path id="Vector_9" d="M6452.88 814.2C6452.88 658.68 6579.24 532.32 6733.68 532.32C6880.56 532.32 7001.52 645.72 7011.24 789.36C7018.8 821.76 7006.92 843.36 6969.12 843.36H6534.96C6546.84 941.64 6632.16 1018.32 6733.68 1018.32C6788.76 1018.32 6840.6 994.56 6877.32 957.84C6885.96 950.28 6895.68 947.04 6904.32 947.04C6916.2 947.04 6925.92 950.28 6931.32 957.84C6947.52 974.04 6947.52 996.72 6931.32 1012.92C6881.64 1063.68 6811.44 1095 6733.68 1095C6579.24 1095 6452.88 968.64 6452.88 814.2ZM6931.32 786.12C6921.6 687.84 6836.28 610.08 6733.68 610.08C6632.16 610.08 6546.84 687.84 6534.96 786.12H6931.32Z" fill="#2F3941"/>
<path id="Vector_10" d="M6206.61 376.8C6206.61 355.2 6224.97 337.92 6245.49 337.92C6268.17 337.92 6285.45 355.2 6285.45 376.8V532.32H6384.81C6406.41 532.32 6423.69 548.52 6423.69 570.12C6423.69 591.72 6406.41 609 6384.81 609H6285.45V1057.2C6285.45 1079.88 6268.17 1097.16 6245.49 1097.16C6224.97 1097.16 6206.61 1079.88 6206.61 1057.2V609H6107.25C6085.65 609 6069.45 591.72 6069.45 570.12C6069.45 548.52 6085.65 532.32 6107.25 532.32H6206.61V376.8Z" fill="#2F3941"/>
<path id="Vector_11" d="M5478.35 814.2C5478.35 657.6 5604.71 532.32 5759.15 532.32C5914.67 532.32 6041.03 657.6 6041.03 814.2C6041.03 969.72 5914.67 1095 5759.15 1095C5604.71 1095 5478.35 969.72 5478.35 814.2ZM5963.27 814.2C5963.27 699.72 5872.55 609 5759.15 609C5645.75 609 5555.03 699.72 5555.03 814.2C5555.03 927.6 5645.75 1018.32 5759.15 1018.32C5872.55 1018.32 5963.27 927.6 5963.27 814.2Z" fill="#2F3941"/>
<path id="Vector_12" d="M4890.24 777.48C4890.24 641.4 5000.4 532.32 5135.4 532.32C5269.32 532.32 5380.56 641.4 5380.56 777.48V1056.12C5380.56 1078.8 5362.2 1095 5340.6 1095C5320.08 1095 5301.72 1078.8 5301.72 1056.12V777.48C5301.72 685.68 5226.12 610.08 5135.4 610.08C5042.52 610.08 4966.92 685.68 4966.92 777.48V1056.12C4966.92 1078.8 4949.64 1095 4929.12 1095C4906.44 1095 4890.24 1078.8 4890.24 1056.12V777.48Z" fill="#2F3941"/>
</g>
</g>
</g>
<defs>
<clipPath id="clip0_76_1430">
<rect width="2425" height="512" fill="white" transform="scale(3)"/>
</clipPath>
</defs>
</svg>
