<?xml version="1.0" encoding="UTF-8"?>
<svg width="2425px" height="512px" viewBox="0 0 2425 512" version="1.1" xmlns="http://www.w3.org/2000/svg" xmlns:xlink="http://www.w3.org/1999/xlink">
    <title>internalnote_logo_dark copy</title>
    <g id="internalnote_logo_dark-copy" stroke="none" stroke-width="1" fill="none" fill-rule="evenodd">
        <g id="internalnote" transform="translate(444.997314, 99.606445)" fill="#000" fill-rule="nonzero">
            <g>
                <path d="M27.3457031,53.2890625 C42.7714844,53.2890625 54.6914062,41.1938477 54.6914062,26.6445312 C54.6914062,12.0952148 42.7714844,0 27.3457031,0 C11.9199219,0 0,12.0952148 0,26.6445312 C0,41.1938477 11.9199219,53.2890625 27.3457031,53.2890625 Z M1.75292969,265.393555 L52.9384766,265.393555 L52.9384766,77.4794922 L1.75292969,77.4794922 L1.75292969,265.393555 Z" id="Shape"></path>
                <path d="M87.1206055,265.393555 L138.306152,265.393555 L138.306152,157.413086 C138.306152,132.87207 152.855469,116.043945 175.818848,116.043945 C198.782227,116.043945 210.351562,130.067383 210.351562,154.608398 L210.351562,265.393555 L261.537109,265.393555 L261.537109,144.09082 C261.537109,100.092285 238.047852,73.6230469 196.678711,73.6230469 C168.28125,73.6230469 148.999023,86.7700195 139.35791,108.331055 L138.306152,108.331055 L138.306152,77.4794922 L87.1206055,77.4794922 L87.1206055,265.393555 Z" id="Path"></path>
                <path d="M368.641113,269.25 C379.333984,269.25 387.572754,268.198242 393.357422,267.321777 L393.357422,229.809082 C390.202148,230.159668 386.871582,230.685547 382.313965,230.685547 C366.888184,230.685547 359,224.725586 359,207.196289 L359,116.043945 L393.357422,116.043945 L393.357422,77.4794922 L359,77.4794922 L359,31.5527344 L307.288574,31.5527344 L307.288574,77.4794922 L281.169922,77.4794922 L281.169922,116.043945 L307.288574,116.043945 L307.288574,212.805664 C307.288574,253.123047 326.921387,269.25 368.641113,269.25 Z" id="Path"></path>
                <path d="M504.493164,269.25 C558.132812,269.25 584.076172,237.521973 589.86084,209.825684 L590.386719,207.897461 L543.408203,207.897461 L543.057617,208.949219 C539.376465,219.466797 526.580078,231.036133 505.544922,231.036133 C479.42627,231.036133 463.124023,213.506836 462.598145,183.531738 L591.964355,183.531738 L591.964355,167.755371 C591.964355,110.960449 557.431641,73.6230469 502.389648,73.6230469 C447.347656,73.6230469 412.11377,111.836914 412.11377,171.611816 L412.11377,171.787109 C412.11377,231.912598 446.99707,269.25 504.493164,269.25 Z M503.266113,111.836914 C524.476562,111.836914 539.727051,125.334473 542.882324,151.277832 L463.124023,151.277832 C466.45459,125.860352 482.230957,111.836914 503.266113,111.836914 Z" id="Shape"></path>
                <path d="M618.258301,265.393555 L669.443848,265.393555 L669.443848,160.217773 C669.443848,132.87207 684.168457,117.796875 709.410645,117.796875 C716.772949,117.796875 723.784668,118.848633 727.991699,120.601562 L727.991699,75.5512695 C724.135254,74.4995117 718.876465,73.6230469 713.26709,73.6230469 C691.355469,73.6230469 676.10498,87.1206055 670.495605,110.259277 L669.443848,110.259277 L669.443848,77.4794922 L618.258301,77.4794922 L618.258301,265.393555 Z" id="Path"></path>
                <path d="M748.851562,265.393555 L800.037109,265.393555 L800.037109,157.413086 C800.037109,132.87207 814.586426,116.043945 837.549805,116.043945 C860.513184,116.043945 872.08252,130.067383 872.08252,154.608398 L872.08252,265.393555 L923.268066,265.393555 L923.268066,144.09082 C923.268066,100.092285 899.778809,73.6230469 858.409668,73.6230469 C830.012207,73.6230469 810.72998,86.7700195 801.088867,108.331055 L800.037109,108.331055 L800.037109,77.4794922 L748.851562,77.4794922 L748.851562,265.393555 Z" id="Path"></path>
                <path d="M1011.61572,268.373535 C1036.33203,268.373535 1056.31543,256.628906 1067.0083,237.34668 L1068.06006,237.34668 L1068.06006,265.393555 L1119.24561,265.393555 L1119.24561,136.553223 C1119.24561,98.6899414 1087.86816,73.6230469 1039.31201,73.6230469 C989.704102,73.6230469 959.904297,98.5146484 957.099609,133.222656 L956.924316,135.326172 L1003.72754,135.326172 L1004.07812,133.748535 C1006.53223,121.65332 1018.10156,112.713379 1037.2085,112.713379 C1057.19189,112.713379 1068.06006,123.055664 1068.06006,139.708496 L1068.06006,151.277832 L1021.60742,154.08252 C974.979492,157.0625 948.510254,177.045898 948.510254,211.228027 L948.510254,211.578613 C948.510254,244.708984 973.927734,268.373535 1011.61572,268.373535 Z M999.169922,208.949219 L999.169922,208.598633 C999.169922,195.276367 1009.51221,186.862305 1029.32031,185.635254 L1068.06006,183.181152 L1068.06006,196.678711 C1068.06006,216.311523 1051.23193,231.036133 1028.26855,231.036133 C1010.56396,231.036133 999.169922,222.797363 999.169922,208.949219 Z" id="Shape"></path>
                <polygon id="Path" points="1153.42773 265.393555 1204.61328 265.393555 1204.61328 12.4458008 1153.42773 12.4458008"></polygon>
                <path d="M1242.30127,265.393555 L1272.80225,265.393555 L1272.80225,158.114258 C1272.80225,127.087402 1291.55859,106.578125 1320.30664,106.578125 C1348.35352,106.578125 1362.20166,122.880371 1362.20166,152.504883 L1362.20166,265.393555 L1392.70264,265.393555 L1392.70264,147.070801 C1392.70264,105.526367 1369.56396,79.5830078 1329.59717,79.5830078 C1301.90088,79.5830078 1283.31982,92.0288086 1273.50342,109.032227 L1272.80225,109.032227 L1272.80225,83.0888672 L1242.30127,83.0888672 L1242.30127,265.393555 Z" id="Path"></path>
                <path d="M1506.99365,268.899414 C1557.30273,268.899414 1591.30957,232.438477 1591.30957,174.241211 L1591.30957,173.890625 C1591.30957,115.693359 1557.12744,79.5830078 1506.81836,79.5830078 C1456.50928,79.5830078 1422.50244,115.868652 1422.50244,173.890625 L1422.50244,174.241211 C1422.50244,232.263184 1456.33398,268.899414 1506.99365,268.899414 Z M1507.16895,241.904297 C1474.91504,241.904297 1453.70459,217.187988 1453.70459,174.241211 L1453.70459,173.890625 C1453.70459,131.294434 1475.09033,106.578125 1506.81836,106.578125 C1539.07227,106.578125 1560.10742,131.119141 1560.10742,173.890625 L1560.10742,174.241211 C1560.10742,217.012695 1539.24756,241.904297 1507.16895,241.904297 Z" id="Shape"></path>
                <path d="M1681.23486,268.899414 C1687.19482,268.899414 1693.68066,268.198242 1697.53711,267.672363 L1697.53711,242.956055 C1694.90771,243.131348 1691.40186,243.657227 1687.7207,243.657227 C1671.41846,243.657227 1662.8291,238.223145 1662.8291,218.765625 L1662.8291,108.331055 L1697.53711,108.331055 L1697.53711,83.0888672 L1662.8291,83.0888672 L1662.8291,33.831543 L1631.27637,33.831543 L1631.27637,83.0888672 L1604.63184,83.0888672 L1604.63184,108.331055 L1631.27637,108.331055 L1631.27637,218.940918 C1631.27637,253.824219 1647.75391,268.899414 1681.23486,268.899414 Z" id="Path"></path>
                <path d="M1799.9082,268.899414 C1839.69971,268.899414 1869.49951,245.05957 1875.45947,214.90918 L1875.81006,213.15625 L1845.83496,213.15625 L1845.30908,214.733887 C1840.05029,230.334961 1823.74805,241.904297 1800.60938,241.904297 C1768.18018,241.904297 1747.49561,219.992676 1746.79443,182.47998 L1878.08887,182.47998 L1878.08887,171.26123 C1878.08887,116.569824 1847.76318,79.5830078 1797.97998,79.5830078 C1748.19678,79.5830078 1715.94287,118.322754 1715.94287,174.76709 L1715.94287,174.942383 C1715.94287,232.263184 1747.49561,268.899414 1799.9082,268.899414 Z M1797.80469,106.578125 C1824.44922,106.578125 1844.08203,123.230957 1847.06201,158.640137 L1747.32031,158.640137 C1750.65088,124.633301 1771.33545,106.578125 1797.80469,106.578125 Z" id="Shape"></path>
            </g>
        </g>
        <g id="Group" transform="translate(77.000000, 134.000000)" fill="#0A84FF" fill-rule="nonzero">
            <g id="Path" transform="translate(0.000000, -0.000000)">
                <path d="M31.8836556,176.614185 C31.8836556,196.736688 48.2467556,213.083664 68.3791333,213.083664 L238.620867,213.083664 C258.736189,213.083664 275.099289,196.736688 275.099289,176.614185 L275.099289,68.3789935 C275.099289,48.2564906 258.736189,31.8924619 238.620867,31.8924619 L68.3791333,31.8924619 C48.2467556,31.8924619 31.8836556,48.2564906 31.8836556,68.3789935 C31.8836556,68.3789935 31.8836556,90.0976543 31.8836556,105.765922 C48.4446,105.765922 103.448767,105.765922 134.462589,105.765922 L134.462589,76.9157096 L212.072189,121.734322 L134.459178,166.484722 L134.459178,137.661794 L0,137.661794 L0,68.3789935 C0,30.6782905 30.6727111,0 68.3791333,0 L238.620867,0 C276.317056,0 307,30.6782905 307,68.3789935 L307,176.614185 C307,214.311478 276.317056,245 238.620867,245 L68.3791333,245 C30.6727111,245 0,214.311478 0,176.614185 L31.8836556,176.614185 Z"></path>
            </g>
        </g>
    </g>
</svg>